{
  "accessors": [
    {
      "bufferView": 2,
      "componentType": 5126,
      "count": 420,
      "max": [
        0.8761929869651794,
        0.9200249910354614,
        0.13945700228214264
      ],
      "min": [
        -0.8726170063018799,
        0.12017499655485153,
        0.09257669746875763
      ],
      "type": "VEC3"
    },
    {
      "bufferView": 2,
      "byteOffset": 5040,
      "componentType": 5126,
      "count": 420,
      "max": [
        0.9993922114372253,
        0.9578262567520142,
        1.0
      ],
      "min": [
        -0.9993922114372253,
        -0.9578262567520142,
        -1.0
      ],
      "type": "VEC3"
    },
    {
      "bufferView": 3,
      "componentType": 5126,
      "count": 420,
      "max": [
        1.0,
        0.9993920922279358,
        1.0,
        1.0
      ],
      "min": [
        -1.0,
        -1.0,
        -1.0,
        1.0
      ],
      "type": "VEC4"
    },
    {
      "bufferView": 1,
      "componentType": 5126,
      "count": 420,
      "max": [
        0.9937859773635864,
        0.9994999766349792
      ],
      "min": [
        0.0005000000237487257,
        0.0005000000237487257
      ],
      "type": "VEC2"
    },
    {
      "bufferView": 0,
      "componentType": 5125,
      "count": 792,
      "type": "SCALAR"
    },
    {
      "bufferView": 2,
      "byteOffset": 10080,
      "componentType": 5126,
      "count": 120,
      "max": [
        0.959417998790741,
        -0.2953369915485382,
        0.26466500759124756
      ],
      "min": [
        -0.9605739712715149,
        -0.8242899775505066,
        -0.26496198773384094
      ],
      "type": "VEC3"
    },
    {
      "bufferView": 2,
      "byteOffset": 11520,
      "componentType": 5126,
      "count": 120,
      "max": [
        1.0,
        1.0,
        0.9557790160179138
      ],
      "min": [
        -1.0,
        -0.8003950119018555,
        -0.9557790160179138
      ],
      "type": "VEC3"
    },
    {
      "bufferView": 3,
      "byteOffset": 6720,
      "componentType": 5126,
      "count": 120,
      "max": [
        1.0,
        0.9555686116218567,
        1.0,
        1.0
      ],
      "min": [
        -1.0,
        -1.0,
        -1.0,
        1.0
      ],
      "type": "VEC4"
    },
    {
      "bufferView": 1,
      "byteOffset": 3360,
      "componentType": 5126,
      "count": 120,
      "max": [
        0.9693999886512756,
        0.9994999766349792
      ],
      "min": [
        0.0005000000237487257,
        0.0005000000237487257
      ],
      "type": "VEC2"
    },
    {
      "bufferView": 0,
      "byteOffset": 3168,
      "componentType": 5125,
      "count": 216,
      "type": "SCALAR"
    },
    {
      "bufferView": 2,
      "byteOffset": 12960,
      "componentType": 5126,
      "count": 870,
      "max": [
        0.9289730191230774,
        1.0,
        0.12060099840164185
      ],
      "min": [
        -0.9296519756317139,
        0.04969149827957153,
        -0.13456299901008606
      ],
      "type": "VEC3"
    },
    {
      "bufferView": 2,
      "byteOffset": 23400,
      "componentType": 5126,
      "count": 870,
      "max": [
        0.9996897578239441,
        0.9986754655838013,
        1.0
      ],
      "min": [
        -0.9996897578239441,
        -0.7728157043457031,
        -0.9998735785484314
      ],
      "type": "VEC3"
    },
    {
      "bufferView": 3,
      "byteOffset": 8640,
      "componentType": 5126,
      "count": 870,
      "max": [
        0.9573928117752075,
        0.997086226940155,
        1.0,
        1.0
      ],
      "min": [
        -0.9999696016311646,
        -0.9999988675117493,
        -1.0,
        1.0
      ],
      "type": "VEC4"
    },
    {
      "bufferView": 1,
      "byteOffset": 4320,
      "componentType": 5126,
      "count": 870,
      "max": [
        0.9943860173225403,
        0.9994999766349792
      ],
      "min": [
        0.0005000000237487257,
        0.0005000000237487257
      ],
      "type": "VEC2"
    },
    {
      "bufferView": 0,
      "byteOffset": 4032,
      "componentType": 5125,
      "count": 3360,
      "type": "SCALAR"
    },
    {
      "bufferView": 2,
      "byteOffset": 33840,
      "componentType": 5126,
      "count": 1684,
      "max": [
        0.7589690089225769,
        0.5158659815788269,
        0.38278698921203613
      ],
      "min": [
        -0.7600979804992676,
        -0.9672240018844604,
        -0.3846220076084137
      ],
      "type": "VEC3"
    },
    {
      "bufferView": 2,
      "byteOffset": 54048,
      "componentType": 5126,
      "count": 1684,
      "max": [
        1.0,
        0.9998176693916321,
        0.9998177886009216
      ],
      "min": [
        -1.0,
        -0.9998176693916321,
        -0.9998177886009216
      ],
      "type": "VEC3"
    },
    {
      "bufferView": 3,
      "byteOffset": 22560,
      "componentType": 5126,
      "count": 1684,
      "max": [
        1.0,
        1.0,
        1.0,
        1.0
      ],
      "min": [
        -0.9998177289962769,
        -1.0,
        -0.9999761581420898,
        1.0
      ],
      "type": "VEC4"
    },
    {
      "bufferView": 1,
      "byteOffset": 11280,
      "componentType": 5126,
      "count": 1684,
      "max": [
        0.9831110239028931,
        0.9994999766349792
      ],
      "min": [
        0.0005000000237487257,
        0.0005000000237487257
      ],
      "type": "VEC2"
    },
    {
      "bufferView": 0,
      "byteOffset": 17472,
      "componentType": 5125,
      "count": 6636,
      "type": "SCALAR"
    },
    {
      "bufferView": 2,
      "byteOffset": 74256,
      "componentType": 5126,
      "count": 1426,
      "max": [
        0.9605739712715149,
        0.5752189755439758,
        0.413563996553421
      ],
      "min": [
        -0.9589040279388428,
        -1.0,
        -0.413563996553421
      ],
      "type": "VEC3"
    },
    {
      "bufferView": 2,
      "byteOffset": 91368,
      "componentType": 5126,
      "count": 1426,
      "max": [
        1.0,
        0.9999880194664001,
        1.0
      ],
      "min": [
        -1.0,
        -0.9999880194664001,
        -1.0
      ],
      "type": "VEC3"
    },
    {
      "bufferView": 3,
      "byteOffset": 49504,
      "componentType": 5126,
      "count": 1426,
      "max": [
        1.0,
        0.9995684027671814,
        0.9999880194664001,
        1.0
      ],
      "min": [
        -1.0,
        -1.0,
        -0.9999871253967285,
        1.0
      ],
      "type": "VEC4"
    },
    {
      "bufferView": 1,
      "byteOffset": 24752,
      "componentType": 5126,
      "count": 1426,
      "max": [
        0.9905089735984802,
        0.9994999766349792
      ],
      "min": [
        0.0005000000237487257,
        0.0005000000237487257
      ],
      "type": "VEC2"
    },
    {
      "bufferView": 0,
      "byteOffset": 44016,
      "componentType": 5125,
      "count": 4356,
      "type": "SCALAR"
    }
  ],
  "asset": {
    "extras": {
      "author": "_tom.j.l_ (https://sketchfab.com/_t_jay_lee_)",
      "license": "CC-BY-4.0 (http://creativecommons.org/licenses/by/4.0/)",
      "source": "https://sketchfab.com/3d-models/arcade-ahris-headphones-lol-526de2875c4f4c3b92e6194088d0fa50",
      "title": "Arcade Ahri's Headphones (LoL)"
    },
    "generator": "Sketchfab-12.68.0",
    "version": "2.0"
  },
  "bufferViews": [
    {
      "buffer": 0,
      "byteLength": 61440,
      "name": "floatBufferViews",
      "target": 34963
    },
    {
      "buffer": 0,
      "byteLength": 36160,
      "byteOffset": 61440,
      "byteStride": 8,
      "name": "floatBufferViews",
      "target": 34962
    },
    {
      "buffer": 0,
      "byteLength": 108480,
      "byteOffset": 97600,
      "byteStride": 12,
      "name": "floatBufferViews",
      "target": 34962
    },
    {
      "buffer": 0,
      "byteLength": 72320,
      "byteOffset": 206080,
      "byteStride": 16,
      "name": "floatBufferViews",
      "target": 34962
    }
  ],
  "buffers": [
    {
      "byteLength": 278400,
      "uri": "scene.bin"
    }
  ],
  "images": [
    {
      "uri": "textures/Headphone_Body_baseColor.jpeg"
    },
    {
      "uri": "textures/Headphone_Body_metallicRoughness.png"
    },
    {
      "uri": "textures/Headphone_Body_normal.png"
    },
    {
      "uri": "textures/Cushions_baseColor.jpeg"
    },
    {
      "uri": "textures/Cushions_metallicRoughness.png"
    },
    {
      "uri": "textures/Cushions_normal.png"
    },
    {
      "uri": "textures/Ears_baseColor.jpeg"
    },
    {
      "uri": "textures/Ears_metallicRoughness.png"
    },
    {
      "uri": "textures/Ears_normal.png"
    },
    {
      "uri": "textures/Stars_baseColor.jpeg"
    },
    {
      "uri": "textures/Stars_metallicRoughness.png"
    },
    {
      "uri": "textures/Stars_normal.png"
    },
    {
      "uri": "textures/Ear_Highlights_baseColor.jpeg"
    },
    {
      "uri": "textures/Ear_Highlights_metallicRoughness.png"
    },
    {
      "uri": "textures/Ear_Highlights_normal.png"
    }
  ],
  "materials": [
    {
      "doubleSided": true,
      "name": "Headphone_Body",
      "normalTexture": {
        "index": 2
      },
      "pbrMetallicRoughness": {
        "baseColorTexture": {
          "index": 0
        },
        "metallicRoughnessTexture": {
          "index": 1
        }
      }
    },
    {
      "doubleSided": true,
      "name": "Cushions",
      "normalTexture": {
        "index": 5
      },
      "pbrMetallicRoughness": {
        "baseColorTexture": {
          "index": 3
        },
        "metallicRoughnessTexture": {
          "index": 4
        }
      }
    },
    {
      "doubleSided": true,
      "name": "Ears",
      "normalTexture": {
        "index": 8
      },
      "pbrMetallicRoughness": {
        "baseColorTexture": {
          "index": 6
        },
        "metallicRoughnessTexture": {
          "index": 7
        }
      }
    },
    {
      "doubleSided": true,
      "emissiveFactor": [
        0.268125057220459,
        0.268125057220459,
        0.268125057220459
      ],
      "name": "Stars",
      "normalTexture": {
        "index": 11
      },
      "pbrMetallicRoughness": {
        "baseColorTexture": {
          "index": 9
        },
        "metallicRoughnessTexture": {
          "index": 10
        }
      }
    },
    {
      "doubleSided": true,
      "emissiveFactor": [
        0.20562505722045898,
        0.20562505722045898,
        0.20562505722045898
      ],
      "name": "Ear_Highlights",
      "normalTexture": {
        "index": 14
      },
      "pbrMetallicRoughness": {
        "baseColorTexture": {
          "index": 12
        },
        "metallicRoughnessTexture": {
          "index": 13
        }
      }
    }
  ],
  "meshes": [
    {
      "name": "defaultMaterial",
      "primitives": [
        {
          "attributes": {
            "NORMAL": 1,
            "POSITION": 0,
            "TANGENT": 2,
            "TEXCOORD_0": 3
          },
          "indices": 4,
          "material": 4,
          "mode": 4
        }
      ]
    },
    {
      "name": "defaultMaterial",
      "primitives": [
        {
          "attributes": {
            "NORMAL": 6,
            "POSITION": 5,
            "TANGENT": 7,
            "TEXCOORD_0": 8
          },
          "indices": 9,
          "material": 3,
          "mode": 4
        }
      ]
    },
    {
      "name": "defaultMaterial",
      "primitives": [
        {
          "attributes": {
            "NORMAL": 11,
            "POSITION": 10,
            "TANGENT": 12,
            "TEXCOORD_0": 13
          },
          "indices": 14,
          "material": 2,
          "mode": 4
        }
      ]
    },
    {
      "name": "defaultMaterial",
      "primitives": [
        {
          "attributes": {
            "NORMAL": 16,
            "POSITION": 15,
            "TANGENT": 17,
            "TEXCOORD_0": 18
          },
          "indices": 19,
          "material": 1,
          "mode": 4
        }
      ]
    },
    {
      "name": "defaultMaterial",
      "primitives": [
        {
          "attributes": {
            "NORMAL": 21,
            "POSITION": 20,
            "TANGENT": 22,
            "TEXCOORD_0": 23
          },
          "indices": 24,
          "material": 0,
          "mode": 4
        }
      ]
    }
  ],
  "nodes": [
    {
      "children": [
        1
      ],
      "matrix": [
        1.0,
        0.0,
        0.0,
        0.0,
        0.0,
        -0.32707756757736184,
        -0.9449974894523622,
        0.0,
        0.0,
        0.9449974894523622,
        -0.32707756757736184,
        0.0,
        0.0,
        1.3722251424042042e-07,
        -4.039326739757595e-08,
        1.0
      ],
      "name": "Sketchfab_model"
    },
    {
      "children": [
        2,
        4,
        6,
        8,
        10
      ],
      "matrix": [
        1.0,
        0.0,
        0.0,
        0.0,
        0.0,
        -4.371139006309477e-08,
        0.999999999999999,
        0.0,
        0.0,
        -0.999999999999999,
        -4.371139006309477e-08,
        0.0,
        0.0,
        0.0,
        0.0,
        1.0
      ],
      "name": "Collada visual scene group"
    },
    {
      "children": [
        3
      ],
      "name": "Ear"
    },
    {
      "mesh": 0,
      "name": "defaultMaterial"
    },
    {
      "children": [
        5
      ],
      "name": "Stars"
    },
    {
      "mesh": 1,
      "name": "defaultMaterial"
    },
    {
      "children": [
        7
      ],
      "name": "Ears"
    },
    {
      "mesh": 2,
      "name": "defaultMaterial"
    },
    {
      "children": [
        9
      ],
      "name": "Cushions"
    },
    {
      "mesh": 3,
      "name": "defaultMaterial"
    },
    {
      "children": [
        11
      ],
      "name": "Headphone"
    },
    {
      "mesh": 4,
      "name": "defaultMaterial"
    }
  ],
  "samplers": [
    {
      "magFilter": 9729,
      "minFilter": 9987,
      "wrapS": 10497,
      "wrapT": 10497
    }
  ],
  "scene": 0,
  "scenes": [
    {
      "name": "Sketchfab_Scene",
      "nodes": [
        0
      ]
    }
  ],
  "textures": [
    {
      "sampler": 0,
      "source": 0
    },
    {
      "sampler": 0,
      "source": 1
    },
    {
      "sampler": 0,
      "source": 2
    },
    {
      "sampler": 0,
      "source": 3
    },
    {
      "sampler": 0,
      "source": 4
    },
    {
      "sampler": 0,
      "source": 5
    },
    {
      "sampler": 0,
      "source": 6
    },
    {
      "sampler": 0,
      "source": 7
    },
    {
      "sampler": 0,
      "source": 8
    },
    {
      "sampler": 0,
      "source": 9
    },
    {
      "sampler": 0,
      "source": 10
    },
    {
      "sampler": 0,
      "source": 11
    },
    {
      "sampler": 0,
      "source": 12
    },
    {
      "sampler": 0,
      "source": 13
    },
    {
      "sampler": 0,
      "source": 14
    }
  ]
}
