{
  "accessors": [
    {
      "bufferView": 3,
      "componentType": 5126,
      "count": 227,
      "max": [
        0.8986495733261108,
        0.7360708117485046,
        1.5274536609649658
      ],
      "min": [
        -0.9034833908081055,
        0.1813867688179016,
        0.06593430042266846
      ],
      "type": "VEC3"
    },
    {
      "bufferView": 3,
      "byteOffset": 2724,
      "componentType": 5126,
      "count": 227,
      "max": [
        0.8084316253662109,
        0.7921457886695862,
        0.8226819038391113
      ],
      "min": [
        -0.879128634929657,
        -0.8746170997619629,
        -0.8516715168952942
      ],
      "type": "VEC3"
    },
    {
      "bufferView": 4,
      "componentType": 5126,
      "count": 227,
      "max": [
        0.9771689176559448,
        0.9994874596595764,
        0.9797626733779907,
        1.0
      ],
      "min": [
        -0.9956454038619995,
        -0.9912514686584473,
        -0.6137178540229797,
        -1.0
      ],
      "type": "VEC4"
    },
    {
      "bufferView": 2,
      "componentType": 5126,
      "count": 227,
      "max": [
        0.8277609944343567,
        0.6185120344161987
      ],
      "min": [
        0.611873984336853,
        0.5819129943847656
      ],
      "type": "VEC2"
    },
    {
      "bufferView": 1,
      "componentType": 5125,
      "count": 948,
      "type": "SCALAR"
    },
    {
      "bufferView": 3,
      "byteOffset": 5448,
      "componentType": 5126,
      "count": 51,
      "max": [
        0.6573894023895264,
        0.7285206913948059,
        1.521081805229187
      ],
      "min": [
        -0.6622258424758911,
        0.25340336561203003,
        1.3428924083709717
      ],
      "type": "VEC3"
    },
    {
      "bufferView": 3,
      "byteOffset": 6060,
      "componentType": 5126,
      "count": 51,
      "max": [
        0.6116148233413696,
        0.04409892484545708,
        0.9968042373657227
      ],
      "min": [
        -0.6115836501121521,
        -0.18239913880825043,
        0.788578987121582
      ],
      "type": "VEC3"
    },
    {
      "bufferView": 2,
      "byteOffset": 1816,
      "componentType": 5126,
      "count": 51,
      "max": [
        0.9779689908027649,
        0.9343569874763489
      ],
      "min": [
        0.019495999440550804,
        0.05826300382614136
      ],
      "type": "VEC2"
    },
    {
      "bufferView": 1,
      "byteOffset": 3792,
      "componentType": 5125,
      "count": 138,
      "type": "SCALAR"
    },
    {
      "bufferView": 5,
      "componentType": 5126,
      "count": 2,
      "max": [
        1.0,
        0.0,
        0.0,
        0.0,
        0.0,
        1.0,
        0.07135959714651108,
        0.0,
        0.0,
        0.0,
        1.0,
        0.0,
        0.0,
        0.0,
        0.0,
        1.0
      ],
      "min": [
        0.07135959714651108,
        0.0,
        0.0,
        0.0,
        0.0,
        -9.587791893750364e-09,
        0.0,
        0.0,
        0.0,
        -0.07135959714651108,
        -9.587791893750364e-09,
        0.0,
        0.0,
        0.0,
        0.0,
        1.0
      ],
      "type": "MAT4"
    },
    {
      "bufferView": 0,
      "componentType": 5123,
      "count": 227,
      "type": "VEC4"
    },
    {
      "bufferView": 4,
      "byteOffset": 3632,
      "componentType": 5126,
      "count": 227,
      "max": [
        1.0,
        0.0,
        0.0,
        0.0
      ],
      "min": [
        1.0,
        0.0,
        0.0,
        0.0
      ],
      "type": "VEC4"
    },
    {
      "bufferView": 0,
      "byteOffset": 1816,
      "componentType": 5123,
      "count": 51,
      "type": "VEC4"
    },
    {
      "bufferView": 4,
      "byteOffset": 7264,
      "componentType": 5126,
      "count": 51,
      "max": [
        1.0,
        0.0,
        0.0,
        0.0
      ],
      "min": [
        1.0,
        0.0,
        0.0,
        0.0
      ],
      "type": "VEC4"
    }
  ],
  "asset": {
    "extras": {
      "author": "Speaker Man 3.0 (https://sketchfab.com/benjamimpalandi)",
      "license": "CC-BY-4.0 (http://creativecommons.org/licenses/by/4.0/)",
      "source": "https://sketchfab.com/3d-models/broken-glasses-712e68fd5dfa4ed29f0db52ef6a154fe",
      "title": "Broken-Glasses"
    },
    "generator": "Sketchfab-16.42.0",
    "version": "2.0"
  },
  "bufferViews": [
    {
      "buffer": 0,
      "byteLength": 2224,
      "byteStride": 8,
      "name": "shortBufferViews",
      "target": 34962
    },
    {
      "buffer": 0,
      "byteLength": 4344,
      "byteOffset": 2224,
      "name": "floatBufferViews",
      "target": 34963
    },
    {
      "buffer": 0,
      "byteLength": 2224,
      "byteOffset": 6568,
      "byteStride": 8,
      "name": "floatBufferViews",
      "target": 34962
    },
    {
      "buffer": 0,
      "byteLength": 6672,
      "byteOffset": 8792,
      "byteStride": 12,
      "name": "floatBufferViews",
      "target": 34962
    },
    {
      "buffer": 0,
      "byteLength": 8080,
      "byteOffset": 15464,
      "byteStride": 16,
      "name": "floatBufferViews",
      "target": 34962
    },
    {
      "buffer": 0,
      "byteLength": 128,
      "byteOffset": 23544,
      "name": "floatBufferViews"
    }
  ],
  "buffers": [
    {
      "byteLength": 23672,
      "uri": "scene.bin"
    }
  ],
  "extensionsUsed": [
    "KHR_materials_specular"
  ],
  "images": [
    {
      "uri": "textures/t_leet_baseColor.png"
    },
    {
      "uri": "textures/t_leet_metallicRoughness.png"
    },
    {
      "uri": "textures/t_leet_normal.png"
    },
    {
      "uri": "textures/t_leet_specularf0.png"
    },
    {
      "uri": "textures/t_leet_glass_baseColor.png"
    }
  ],
  "materials": [
    {
      "doubleSided": true,
      "extensions": {
        "KHR_materials_specular": {
          "specularColorFactor": [
            1.0,
            1.0,
            1.0
          ],
          "specularFactor": 0.0,
          "specularTexture": {
            "index": 3
          }
        }
      },
      "name": "t_leet",
      "normalTexture": {
        "index": 2
      },
      "pbrMetallicRoughness": {
        "baseColorTexture": {
          "index": 0
        },
        "metallicRoughnessTexture": {
          "index": 1
        }
      }
    },
    {
      "alphaMode": "BLEND",
      "doubleSided": true,
      "extensions": {
        "KHR_materials_specular": {
          "specularColorFactor": [
            1.0,
            1.0,
            1.0
          ],
          "specularFactor": 1.0
        }
      },
      "name": "t_leet_glass",
      "pbrMetallicRoughness": {
        "baseColorFactor": [
          1.0,
          1.0,
          1.0,
          0.937145713205983
        ],
        "baseColorTexture": {
          "index": 4
        },
        "metallicFactor": 0.0,
        "roughnessFactor": 0.5
      }
    }
  ],
  "meshes": [
    {
      "name": "Object_0",
      "primitives": [
        {
          "attributes": {
            "JOINTS_0": 10,
            "NORMAL": 1,
            "POSITION": 0,
            "TANGENT": 2,
            "TEXCOORD_0": 3,
            "TEXCOORD_1": 3,
            "TEXCOORD_2": 3,
            "TEXCOORD_3": 3,
            "WEIGHTS_0": 11
          },
          "indices": 4,
          "material": 0,
          "mode": 4
        }
      ]
    },
    {
      "name": "Object_1",
      "primitives": [
        {
          "attributes": {
            "JOINTS_0": 12,
            "NORMAL": 6,
            "POSITION": 5,
            "TEXCOORD_0": 7,
            "WEIGHTS_0": 13
          },
          "indices": 8,
          "material": 1,
          "mode": 4
        }
      ]
    }
  ],
  "nodes": [
    {
      "children": [
        1
      ],
      "matrix": [
        1.0,
        0.0,
        0.0,
        0.0,
        0.0,
        2.220446049250313e-16,
        -1.0,
        0.0,
        0.0,
        1.0,
        2.220446049250313e-16,
        0.0,
        0.0,
        0.0,
        0.0,
        1.0
      ],
      "name": "Sketchfab_model"
    },
    {
      "children": [
        2
      ],
      "name": "root"
    },
    {
      "children": [
        3
      ],
      "matrix": [
        1.0,
        0.0,
        0.0,
        0.0,
        0.0,
        2.220446049250313e-16,
        1.0,
        0.0,
        0.0,
        -1.0,
        2.220446049250313e-16,
        0.0,
        0.0,
        0.0,
        0.0,
        1.0
      ],
      "name": "GLTF_SceneRootNode"
    },
    {
      "children": [
        4
      ],
      "matrix": [
        14.013531684875488,
        0.0,
        0.0,
        0.0,
        0.0,
        14.013531684875488,
        0.0,
        0.0,
        0.0,
        0.0,
        14.013531684875488,
        0.0,
        0.0,
        0.0,
        0.0,
        1.0
      ],
      "name": "Blender1\\Broken glasses_ARM_2"
    },
    {
      "children": [
        5,
        7,
        8,
        6
      ],
      "name": "GLTF_created_0"
    },
    {
      "children": [
        9
      ],
      "name": "GLTF_created_0_rootJoint"
    },
    {
      "name": "t_leet_glasses.dmx_1"
    },
    {
      "mesh": 0,
      "name": "Object_7",
      "skin": 0
    },
    {
      "mesh": 1,
      "name": "Object_8",
      "skin": 0
    },
    {
      "name": "t_leet_glasses_0",
      "rotation": [
        -0.70710688829422,
        0.0,
        0.0,
        0.7071066498756409
      ]
    }
  ],
  "samplers": [
    {
      "magFilter": 9729,
      "minFilter": 9987,
      "wrapS": 10497,
      "wrapT": 10497
    }
  ],
  "scene": 0,
  "scenes": [
    {
      "name": "Sketchfab_Scene",
      "nodes": [
        0
      ]
    }
  ],
  "skins": [
    {
      "inverseBindMatrices": 9,
      "joints": [
        5,
        9
      ],
      "skeleton": 5
    }
  ],
  "textures": [
    {
      "sampler": 0,
      "source": 0
    },
    {
      "sampler": 0,
      "source": 1
    },
    {
      "sampler": 0,
      "source": 2
    },
    {
      "sampler": 0,
      "source": 3
    },
    {
      "sampler": 0,
      "source": 4
    }
  ]
}
