{
  "accessors": [
    {
      "bufferView": 2,
      "componentType": 5126,
      "count": 3126,
      "max": [
        0.10749749094247818,
        0.05000000074505806,
        0.027497051283717155
      ],
      "min": [
        -0.10749749094247818,
        -0.05000000074505806,
        -0.027497051283717155
      ],
      "type": "VEC3"
    },
    {
      "bufferView": 2,
      "byteOffset": 37512,
      "componentType": 5126,
      "count": 3126,
      "type": "VEC3"
    },
    {
      "bufferView": 3,
      "componentType": 5126,
      "count": 3126,
      "type": "VEC4"
    },
    {
      "bufferView": 1,
      "componentType": 5126,
      "count": 3126,
      "type": "VEC2"
    },
    {
      "bufferView": 1,
      "byteOffset": 25008,
      "componentType": 5126,
      "count": 3126,
      "type": "VEC2"
    },
    {
      "bufferView": 1,
      "byteOffset": 50016,
      "componentType": 5126,
      "count": 3126,
      "type": "VEC2"
    },
    {
      "bufferView": 0,
      "componentType": 5125,
      "count": 6312,
      "type": "SCALAR"
    }
  ],
  "asset": {
    "generator": "fab-model-conversion",
    "version": "2.0"
  },
  "bufferViews": [
    {
      "buffer": 0,
      "byteLength": 25248,
      "target": 34963
    },
    {
      "buffer": 0,
      "byteLength": 75024,
      "byteOffset": 25248,
      "byteStride": 8,
      "target": 34962
    },
    {
      "buffer": 0,
      "byteLength": 75024,
      "byteOffset": 100272,
      "byteStride": 12,
      "target": 34962
    },
    {
      "buffer": 0,
      "byteLength": 50016,
      "byteOffset": 175296,
      "byteStride": 16,
      "target": 34962
    }
  ],
  "buffers": [
    {
      "byteLength": 225312,
      "uri": "scene.bin"
    }
  ],
  "images": [
    {
      "uri": "textures/Brick_baseColor.png"
    },
    {
      "uri": "textures/Brick_metallicRoughness.png"
    },
    {
      "uri": "textures/Brick_normal.png"
    }
  ],
  "materials": [
    {
      "doubleSided": true,
      "name": "Brick",
      "normalTexture": {
        "index": 2
      },
      "pbrMetallicRoughness": {
        "baseColorTexture": {
          "index": 0
        },
        "metallicRoughnessTexture": {
          "index": 1
        }
      }
    }
  ],
  "meshes": [
    {
      "name": "Brick_Brick_0",
      "primitives": [
        {
          "attributes": {
            "NORMAL": 1,
            "POSITION": 0,
            "TANGENT": 2,
            "TEXCOORD_0": 3,
            "TEXCOORD_1": 4,
            "TEXCOORD_2": 5
          },
          "indices": 6,
          "material": 0,
          "mode": 4
        }
      ]
    }
  ],
  "nodes": [
    {
      "children": [
        1
      ],
      "matrix": [
        1.0,
        0.0,
        0.0,
        0.0,
        0.0,
        2.220446049250313e-16,
        -1.0,
        0.0,
        0.0,
        1.0,
        2.220446049250313e-16,
        0.0,
        0.0,
        0.0,
        0.0,
        1.0
      ],
      "name": "Sketchfab_model"
    },
    {
      "children": [
        2
      ],
      "matrix": [
        0.009999999776482582,
        0.0,
        0.0,
        0.0,
        0.0,
        0.0,
        0.009999999776482582,
        0.0,
        0.0,
        -0.009999999776482582,
        0.0,
        0.0,
        0.0,
        0.0,
        0.0,
        1.0
      ],
      "name": "a82391293f7f4e4f8ba1c02a792ae818.fbx"
    },
    {
      "children": [
        3
      ],
      "name": "RootNode"
    },
    {
      "children": [
        4
      ],
      "matrix": [
        100.0,
        0.0,
        0.0,
        0.0,
        0.0,
        -1.629206793918314e-05,
        -99.99999999999868,
        0.0,
        0.0,
        99.99999999999868,
        -1.629206793918314e-05,
        0.0,
        0.0,
        0.0,
        0.0,
        1.0
      ],
      "name": "Brick"
    },
    {
      "mesh": 0,
      "name": "Brick_Brick_0"
    }
  ],
  "samplers": [
    {
      "magFilter": 9729,
      "minFilter": 9987,
      "wrapS": 10497,
      "wrapT": 10497
    }
  ],
  "scene": 0,
  "scenes": [
    {
      "name": "Sketchfab_Scene",
      "nodes": [
        0
      ]
    }
  ],
  "textures": [
    {
      "sampler": 0,
      "source": 0
    },
    {
      "sampler": 0,
      "source": 1
    },
    {
      "sampler": 0,
      "source": 2
    }
  ]
}
