{
  "accessors": [
    {
      "bufferView": 2,
      "componentType": 5126,
      "count": 65532,
      "max": [
        9.022979736328125,
        -13.318370819091797,
        9.9815673828125
      ],
      "min": [
        8.061445236206055,
        -13.374682426452637,
        8.370063781738281
      ],
      "type": "VEC3"
    },
    {
      "bufferView": 2,
      "byteOffset": 786384,
      "componentType": 5126,
      "count": 65532,
      "max": [
        1.0,
        0.9999998807907104,
        0.996697187423706
      ],
      "min": [
        -1.0,
        -0.4152488708496094,
        -0.9978211522102356
      ],
      "type": "VEC3"
    },
    {
      "bufferView": 1,
      "componentType": 5126,
      "count": 65532,
      "max": [
        0.9844756126403809,
        0.9995978474617004
      ],
      "min": [
        0.003525993088260293,
        0.11781781911849976
      ],
      "type": "VEC2"
    },
    {
      "bufferView": 0,
      "componentType": 5125,
      "count": 352200,
      "type": "SCALAR"
    },
    {
      "bufferView": 2,
      "byteOffset": 1572768,
      "componentType": 5126,
      "count": 65532,
      "max": [
        9.022979736328125,
        -13.3336181640625,
        9.323615074157715
      ],
      "min": [
        7.966241836547852,
        -13.379375457763672,
        8.096977233886719
      ],
      "type": "VEC3"
    },
    {
      "bufferView": 2,
      "byteOffset": 2359152,
      "componentType": 5126,
      "count": 65532,
      "max": [
        0.9983833432197571,
        0.9999995231628418,
        0.9994649887084961
      ],
      "min": [
        -0.9932200908660889,
        -0.5696803331375122,
        -0.9996067881584167
      ],
      "type": "VEC3"
    },
    {
      "bufferView": 1,
      "byteOffset": 524256,
      "componentType": 5126,
      "count": 65532,
      "max": [
        0.9992244243621826,
        0.9996387362480164
      ],
      "min": [
        0.00037378305569291115,
        0.01098644733428955
      ],
      "type": "VEC2"
    },
    {
      "bufferView": 0,
      "byteOffset": 1408800,
      "componentType": 5125,
      "count": 333654,
      "type": "SCALAR"
    },
    {
      "bufferView": 2,
      "byteOffset": 3145536,
      "componentType": 5126,
      "count": 65532,
      "max": [
        9.022979736328125,
        -13.304676055908203,
        10.074759483337402
      ],
      "min": [
        8.139816284179688,
        -13.37493896484375,
        8.098393440246582
      ],
      "type": "VEC3"
    },
    {
      "bufferView": 2,
      "byteOffset": 3931920,
      "componentType": 5126,
      "count": 65532,
      "max": [
        0.9951910376548767,
        0.9999988675117493,
        0.9992092251777649
      ],
      "min": [
        -0.9960311055183411,
        -0.6106170415878296,
        -0.9991447925567627
      ],
      "type": "VEC3"
    },
    {
      "bufferView": 1,
      "byteOffset": 1048512,
      "componentType": 5126,
      "count": 65532,
      "max": [
        0.9993489980697632,
        0.9997552037239075
      ],
      "min": [
        0.000244140625,
        0.013023555278778076
      ],
      "type": "VEC2"
    },
    {
      "bufferView": 0,
      "byteOffset": 2743416,
      "componentType": 5125,
      "count": 313866,
      "type": "SCALAR"
    },
    {
      "bufferView": 2,
      "byteOffset": 4718304,
      "componentType": 5126,
      "count": 65532,
      "max": [
        9.022979736328125,
        -13.34253978729248,
        8.444092750549316
      ],
      "min": [
        8.202179908752441,
        -13.397618293762207,
        7.724300861358643
      ],
      "type": "VEC3"
    },
    {
      "bufferView": 2,
      "byteOffset": 5504688,
      "componentType": 5126,
      "count": 65532,
      "max": [
        0.9988526701927185,
        0.999998152256012,
        0.9998492002487183
      ],
      "min": [
        -0.9985637664794922,
        -0.32288995385169983,
        -0.9993457794189453
      ],
      "type": "VEC3"
    },
    {
      "bufferView": 1,
      "byteOffset": 1572768,
      "componentType": 5126,
      "count": 65532,
      "max": [
        0.9997059106826782,
        0.9997315406799316
      ],
      "min": [
        0.000244140625,
        0.03051769733428955
      ],
      "type": "VEC2"
    },
    {
      "bufferView": 0,
      "byteOffset": 3998880,
      "componentType": 5125,
      "count": 330225,
      "type": "SCALAR"
    },
    {
      "bufferView": 2,
      "byteOffset": 6291072,
      "componentType": 5126,
      "count": 65532,
      "max": [
        8.828367233276367,
        -13.338216781616211,
        9.896730422973633
      ],
      "min": [
        7.355476379394531,
        -13.397229194641113,
        7.735048770904541
      ],
      "type": "VEC3"
    },
    {
      "bufferView": 2,
      "byteOffset": 7077456,
      "componentType": 5126,
      "count": 65532,
      "max": [
        0.9931598901748657,
        0.9999995231628418,
        0.9994649887084961
      ],
      "min": [
        -0.9958986043930054,
        -0.6049195528030396,
        -0.9996263384819031
      ],
      "type": "VEC3"
    },
    {
      "bufferView": 1,
      "byteOffset": 2097024,
      "componentType": 5126,
      "count": 65532,
      "max": [
        0.9997162222862244,
        0.999741792678833
      ],
      "min": [
        0.000244140625,
        0.042381882667541504
      ],
      "type": "VEC2"
    },
    {
      "bufferView": 0,
      "byteOffset": 5319780,
      "componentType": 5125,
      "count": 297507,
      "type": "SCALAR"
    },
    {
      "bufferView": 2,
      "byteOffset": 7863840,
      "componentType": 5126,
      "count": 65532,
      "max": [
        8.219677925109863,
        -13.320616722106934,
        10.095443725585938
      ],
      "min": [
        7.345160484313965,
        -13.39335823059082,
        8.17064380645752
      ],
      "type": "VEC3"
    },
    {
      "bufferView": 2,
      "byteOffset": 8650224,
      "componentType": 5126,
      "count": 65532,
      "max": [
        0.985295832157135,
        0.9999995827674866,
        0.9993360638618469
      ],
      "min": [
        -0.992217481136322,
        -0.41330963373184204,
        -0.9973684549331665
      ],
      "type": "VEC3"
    },
    {
      "bufferView": 1,
      "byteOffset": 2621280,
      "componentType": 5126,
      "count": 65532,
      "max": [
        0.999604344367981,
        0.999537467956543
      ],
      "min": [
        0.000244140625,
        0.038600802421569824
      ],
      "type": "VEC2"
    },
    {
      "bufferView": 0,
      "byteOffset": 6509808,
      "componentType": 5125,
      "count": 322563,
      "type": "SCALAR"
    },
    {
      "bufferView": 2,
      "byteOffset": 9436608,
      "componentType": 5126,
      "count": 65532,
      "max": [
        8.235187530517578,
        -13.321094512939453,
        10.086854934692383
      ],
      "min": [
        7.345160484313965,
        -13.392744064331055,
        8.265863418579102
      ],
      "type": "VEC3"
    },
    {
      "bufferView": 2,
      "byteOffset": 10222992,
      "componentType": 5126,
      "count": 65532,
      "max": [
        0.9975164532661438,
        0.9999992251396179,
        0.9993380904197693
      ],
      "min": [
        -0.996891438961029,
        -0.5796946883201599,
        -0.9971114993095398
      ],
      "type": "VEC3"
    },
    {
      "bufferView": 1,
      "byteOffset": 3145536,
      "componentType": 5126,
      "count": 65532,
      "max": [
        0.9991136789321899,
        0.9996681213378906
      ],
      "min": [
        0.0021449208725243807,
        0.09985363483428955
      ],
      "type": "VEC2"
    },
    {
      "bufferView": 0,
      "byteOffset": 7800060,
      "componentType": 5125,
      "count": 323598,
      "type": "SCALAR"
    },
    {
      "bufferView": 2,
      "byteOffset": 11009376,
      "componentType": 5126,
      "count": 65532,
      "max": [
        8.236977577209473,
        -13.319866180419922,
        10.083868026733398
      ],
      "min": [
        7.345160484313965,
        -13.414449691772461,
        7.753738880157471
      ],
      "type": "VEC3"
    },
    {
      "bufferView": 2,
      "byteOffset": 11795760,
      "componentType": 5126,
      "count": 65532,
      "max": [
        0.9977635145187378,
        0.9999995827674866,
        0.999342679977417
      ],
      "min": [
        -0.9999640583992004,
        -0.5276927947998047,
        -0.9994160532951355
      ],
      "type": "VEC3"
    },
    {
      "bufferView": 1,
      "byteOffset": 3669792,
      "componentType": 5126,
      "count": 65532,
      "max": [
        0.9991195797920227,
        0.9997159838676453
      ],
      "min": [
        0.00024414061044808477,
        0.0012208223342895508
      ],
      "type": "VEC2"
    },
    {
      "bufferView": 0,
      "byteOffset": 9094452,
      "componentType": 5125,
      "count": 294777,
      "type": "SCALAR"
    },
    {
      "bufferView": 2,
      "byteOffset": 12582144,
      "componentType": 5126,
      "count": 65533,
      "max": [
        8.324326515197754,
        -13.346712112426758,
        8.444307327270508
      ],
      "min": [
        7.345160484313965,
        -13.406928062438965,
        7.741559982299805
      ],
      "type": "VEC3"
    },
    {
      "bufferView": 2,
      "byteOffset": 13368540,
      "componentType": 5126,
      "count": 65533,
      "max": [
        0.998683512210846,
        0.9999980330467224,
        0.9996153712272644
      ],
      "min": [
        -0.9991968274116516,
        -0.6049195528030396,
        -0.9999448657035828
      ],
      "type": "VEC3"
    },
    {
      "bufferView": 1,
      "byteOffset": 4194048,
      "componentType": 5126,
      "count": 65533,
      "max": [
        0.9995934367179871,
        0.9997469186782837
      ],
      "min": [
        0.000244140625,
        0.0013311505317687988
      ],
      "type": "VEC2"
    },
    {
      "bufferView": 0,
      "byteOffset": 10273560,
      "componentType": 5125,
      "count": 284832,
      "type": "SCALAR"
    },
    {
      "bufferView": 2,
      "byteOffset": 14154936,
      "componentType": 5126,
      "count": 14732,
      "max": [
        8.31998348236084,
        -13.358329772949219,
        8.435730934143066
      ],
      "min": [
        7.778933048248291,
        -13.40150260925293,
        7.742346286773682
      ],
      "type": "VEC3"
    },
    {
      "bufferView": 2,
      "byteOffset": 14331720,
      "componentType": 5126,
      "count": 14732,
      "max": [
        0.9886653423309326,
        0.9999938011169434,
        0.9934473633766174
      ],
      "min": [
        -0.987271785736084,
        -0.3833395540714264,
        -0.9945217967033386
      ],
      "type": "VEC3"
    },
    {
      "bufferView": 1,
      "byteOffset": 4718312,
      "componentType": 5126,
      "count": 14732,
      "max": [
        0.9978508949279785,
        0.9997373819351196
      ],
      "min": [
        0.000244140625,
        0.03973501920700073
      ],
      "type": "VEC2"
    },
    {
      "bufferView": 0,
      "byteOffset": 11412888,
      "componentType": 5125,
      "count": 56157,
      "type": "SCALAR"
    }
  ],
  "asset": {
    "extras": {
      "author": "SketchfabRealityScanUser2000 (https://sketchfab.com/SketchfabRealityScanUser2000)",
      "license": "SKETCHFAB Standard (https://sketchfab.com/licenses)",
      "source": "https://sketchfab.com/3d-models/mat-0cb60a5838824537abf7513c691b9b55",
      "title": "Mat"
    },
    "generator": "Sketchfab-16.82.0",
    "version": "2.0"
  },
  "bufferViews": [
    {
      "buffer": 0,
      "byteLength": 11637516,
      "name": "floatBufferViews",
      "target": 34963
    },
    {
      "buffer": 0,
      "byteLength": 4836168,
      "byteOffset": 11637516,
      "byteStride": 8,
      "name": "floatBufferViews",
      "target": 34962
    },
    {
      "buffer": 0,
      "byteLength": 14508504,
      "byteOffset": 16473684,
      "byteStride": 12,
      "name": "floatBufferViews",
      "target": 34962
    }
  ],
  "buffers": [
    {
      "byteLength": 30982188,
      "uri": "scene.bin"
    }
  ],
  "extensionsUsed": [
    "KHR_materials_unlit"
  ],
  "images": [
    {
      "uri": "textures/default_tex0_baseColor.jpeg"
    }
  ],
  "materials": [
    {
      "extensions": {
        "KHR_materials_unlit": {}
      },
      "name": "default_tex0",
      "pbrMetallicRoughness": {
        "baseColorTexture": {
          "index": 0
        },
        "metallicFactor": 0.0
      }
    }
  ],
  "meshes": [
    {
      "name": "Object_0",
      "primitives": [
        {
          "attributes": {
            "NORMAL": 1,
            "POSITION": 0,
            "TEXCOORD_0": 2
          },
          "indices": 3,
          "material": 0,
          "mode": 4
        }
      ]
    },
    {
      "name": "Object_1",
      "primitives": [
        {
          "attributes": {
            "NORMAL": 5,
            "POSITION": 4,
            "TEXCOORD_0": 6
          },
          "indices": 7,
          "material": 0,
          "mode": 4
        }
      ]
    },
    {
      "name": "Object_2",
      "primitives": [
        {
          "attributes": {
            "NORMAL": 9,
            "POSITION": 8,
            "TEXCOORD_0": 10
          },
          "indices": 11,
          "material": 0,
          "mode": 4
        }
      ]
    },
    {
      "name": "Object_3",
      "primitives": [
        {
          "attributes": {
            "NORMAL": 13,
            "POSITION": 12,
            "TEXCOORD_0": 14
          },
          "indices": 15,
          "material": 0,
          "mode": 4
        }
      ]
    },
    {
      "name": "Object_4",
      "primitives": [
        {
          "attributes": {
            "NORMAL": 17,
            "POSITION": 16,
            "TEXCOORD_0": 18
          },
          "indices": 19,
          "material": 0,
          "mode": 4
        }
      ]
    },
    {
      "name": "Object_5",
      "primitives": [
        {
          "attributes": {
            "NORMAL": 21,
            "POSITION": 20,
            "TEXCOORD_0": 22
          },
          "indices": 23,
          "material": 0,
          "mode": 4
        }
      ]
    },
    {
      "name": "Object_6",
      "primitives": [
        {
          "attributes": {
            "NORMAL": 25,
            "POSITION": 24,
            "TEXCOORD_0": 26
          },
          "indices": 27,
          "material": 0,
          "mode": 4
        }
      ]
    },
    {
      "name": "Object_7",
      "primitives": [
        {
          "attributes": {
            "NORMAL": 29,
            "POSITION": 28,
            "TEXCOORD_0": 30
          },
          "indices": 31,
          "material": 0,
          "mode": 4
        }
      ]
    },
    {
      "name": "Object_8",
      "primitives": [
        {
          "attributes": {
            "NORMAL": 33,
            "POSITION": 32,
            "TEXCOORD_0": 34
          },
          "indices": 35,
          "material": 0,
          "mode": 4
        }
      ]
    },
    {
      "name": "Object_9",
      "primitives": [
        {
          "attributes": {
            "NORMAL": 37,
            "POSITION": 36,
            "TEXCOORD_0": 38
          },
          "indices": 39,
          "material": 0,
          "mode": 4
        }
      ]
    }
  ],
  "nodes": [
    {
      "children": [
        1
      ],
      "matrix": [
        1.0,
        0.0,
        0.0,
        0.0,
        0.0,
        2.220446049250313e-16,
        -1.0,
        0.0,
        0.0,
        1.0,
        2.220446049250313e-16,
        0.0,
        0.0,
        0.0,
        0.0,
        1.0
      ],
      "name": "Sketchfab_model"
    },
    {
      "children": [
        2
      ],
      "name": "root"
    },
    {
      "children": [
        3
      ],
      "matrix": [
        1.0,
        0.0,
        0.0,
        0.0,
        0.0,
        2.220446049250313e-16,
        1.0,
        0.0,
        0.0,
        -1.0,
        2.220446049250313e-16,
        0.0,
        0.0,
        0.0,
        0.0,
        1.0
      ],
      "name": "GLTF_SceneRootNode"
    },
    {
      "children": [
        4,
        5,
        6,
        7,
        8,
        9,
        10,
        11,
        12,
        13
      ],
      "matrix": [
        0.9997014999389648,
        0.0,
        0.02443261630833149,
        0.0,
        0.0,
        1.0,
        0.0,
        0.0,
        -0.02443261630833149,
        0.0,
        0.9997014999389648,
        0.0,
        0.22013290226459503,
        0.0,
        -0.19833220541477203,
        1.0
      ],
      "name": "_0"
    },
    {
      "mesh": 0,
      "name": "Object_4"
    },
    {
      "mesh": 1,
      "name": "Object_5"
    },
    {
      "mesh": 2,
      "name": "Object_6"
    },
    {
      "mesh": 3,
      "name": "Object_7"
    },
    {
      "mesh": 4,
      "name": "Object_8"
    },
    {
      "mesh": 5,
      "name": "Object_9"
    },
    {
      "mesh": 6,
      "name": "Object_10"
    },
    {
      "mesh": 7,
      "name": "Object_11"
    },
    {
      "mesh": 8,
      "name": "Object_12"
    },
    {
      "mesh": 9,
      "name": "Object_13"
    }
  ],
  "samplers": [
    {
      "magFilter": 9729,
      "minFilter": 9729,
      "wrapS": 33071,
      "wrapT": 33071
    }
  ],
  "scene": 0,
  "scenes": [
    {
      "name": "Sketchfab_Scene",
      "nodes": [
        0
      ]
    }
  ],
  "textures": [
    {
      "sampler": 0,
      "source": 0
    }
  ]
}
